<svg data-name="Слой 1" xmlns="http://www.w3.org/2000/svg" viewBox="0 0 640 512"><path d="M496 224a144 144 0 10144 144 143.92 143.92 0 00-144-144zm64 150.29a9.74 9.74 0 01-9.71 9.71h-60.57a9.74 9.74 0 01-9.71-9.71v-76.57a9.74 9.74 0 019.71-9.71h12.57a9.74 9.74 0 019.71 9.71V352h38.29a9.74 9.74 0 019.71 9.71zM496 192c5.4 0 10.72.33 16 .81V144c0-25.6-22.4-48-48-48h-80V48c0-25.6-22.4-48-48-48H176c-25.6 0-48 22.4-48 48v48H48c-25.6 0-48 22.4-48 48v80h395.12A174.92 174.92 0 01496 192zM320 96H192V64h128zm6.82 224H208a16 16 0 01-16-16v-48H0v144c0 25.6 22.4 48 48 48h291.43a173.64 173.64 0 01-12.61-128z" fill="#3295d1"/></svg>